<?xml version="1.0" standalone="no"?>
<!DOCTYPE svg PUBLIC "-//W3C//DTD SVG 20010904//EN"
 "http://www.w3.org/TR/2001/REC-SVG-20010904/DTD/svg10.dtd">
<svg version="1.0" xmlns="http://www.w3.org/2000/svg"
 width="1640.000000pt" height="1640.000000pt" viewBox="0 0 1640.000000 1640.000000"
 preserveAspectRatio="xMidYMid meet">
<metadata>
Created by potrace 1.11, written by Peter Selinger 2001-2013
</metadata>
<g transform="translate(0.000000,1640.000000) scale(0.100000,-0.100000)"
fill="#000000" stroke="none">
<path d="M11470 16302 c-57 -113 -146 -263 -206 -349 -59 -85 -126 -176 -133
-183 -3 -3 -35 -39 -71 -80 -100 -115 -249 -248 -375 -336 -149 -102 -446
-235 -585 -260 -14 -3 -41 -9 -60 -14 -37 -9 -186 -35 -258 -44 -184 -23 -677
-24 -872 -1 -34 4 -82 8 -270 21 -47 3 -105 7 -130 9 -148 11 -349 19 -515 19
-260 0 -418 -13 -595 -50 -41 -9 -85 -18 -98 -20 -69 -13 -281 -92 -378 -139
-291 -143 -534 -354 -755 -655 -52 -71 -159 -236 -159 -245 0 -2 -11 -20 -23
-39 -20 -29 -230 -442 -232 -456 -1 -3 -34 -72 -74 -155 -41 -82 -102 -208
-136 -280 -34 -71 -97 -202 -140 -290 -43 -88 -109 -225 -147 -305 -39 -80
-101 -208 -138 -285 -37 -77 -95 -196 -128 -265 -33 -69 -98 -204 -145 -300
-81 -168 -142 -294 -287 -595 -37 -77 -107 -221 -155 -320 -48 -99 -106 -220
-130 -270 -23 -49 -84 -175 -135 -280 -51 -104 -121 -248 -155 -320 -34 -71
-95 -197 -135 -280 -40 -82 -102 -211 -137 -285 -36 -74 -102 -209 -145 -300
-44 -91 -108 -223 -143 -295 -34 -71 -100 -206 -145 -300 -78 -161 -118 -243
-272 -565 -36 -74 -74 -155 -86 -180 -21 -47 -77 -216 -87 -260 -9 -44 -15
-84 -21 -130 -4 -25 -9 -63 -13 -85 -4 -22 -6 -87 -6 -145 4 -331 61 -528 262
-900 22 -41 80 -151 128 -245 48 -93 109 -210 135 -260 26 -49 80 -153 120
-230 40 -77 96 -185 125 -240 29 -55 85 -163 125 -240 40 -77 92 -176 115
-220 279 -526 350 -708 381 -977 22 -196 1 -464 -49 -643 -51 -177 -40 -153
-487 -1070 -88 -181 -165 -339 -325 -670 -40 -82 -125 -258 -190 -390 -181
-369 -256 -527 -269 -565 -39 -110 24 -249 138 -305 51 -25 60 -26 217 -25 90
0 250 3 354 5 581 14 595 15 700 50 108 37 216 107 296 192 34 36 119 154 119
166 0 3 50 108 111 234 61 125 137 282 169 348 115 238 356 737 452 935 175
360 362 580 653 769 139 90 387 198 517 225 31 7 166 33 203 40 17 4 46 9 65
12 19 3 37 7 40 9 3 2 26 6 50 10 25 3 86 15 135 25 50 11 101 21 115 24 14 2
99 18 190 36 91 17 176 34 190 36 14 3 59 11 100 19 41 9 86 17 100 20 14 3
50 10 80 16 30 5 66 12 80 15 14 3 115 22 225 44 251 49 253 49 295 56 19 3
37 7 40 9 3 2 26 6 50 10 25 3 61 10 80 15 19 5 51 11 70 14 19 3 71 12 115
21 44 9 91 18 105 21 104 19 304 96 425 162 184 101 368 262 513 447 59 76
158 264 332 630 26 55 91 190 145 300 53 110 112 232 130 270 18 39 83 174
145 300 152 313 152 312 129 367 -23 57 -89 85 -163 68 -23 -5 -52 -11 -66
-13 -148 -28 -160 -30 -270 -52 -41 -8 -89 -17 -107 -20 -17 -3 -109 -20 -205
-39 -154 -30 -201 -39 -273 -51 -21 -4 -111 -21 -155 -30 -14 -3 -41 -8 -60
-11 -19 -3 -43 -7 -52 -10 -10 -3 -30 -7 -45 -10 -16 -2 -48 -9 -73 -14 -25
-5 -97 -19 -160 -30 -63 -12 -149 -28 -190 -36 -41 -9 -86 -17 -100 -19 -36
-5 -292 -55 -310 -60 -8 -2 -33 -6 -55 -10 -22 -3 -83 -14 -135 -24 -93 -19
-296 -58 -335 -65 -11 -2 -96 -18 -190 -36 -93 -17 -181 -34 -195 -37 -14 -2
-69 -13 -123 -24 -53 -10 -110 -21 -125 -24 -15 -2 -59 -10 -98 -18 -74 -14
-113 -8 -146 21 -26 22 -33 76 -15 119 36 89 234 485 280 558 164 265 394 474
684 619 95 47 291 118 363 131 14 3 113 21 220 40 107 20 211 38 230 41 28 4
182 33 260 48 8 2 37 7 63 10 27 4 59 9 70 12 17 3 326 58 552 98 11 2 58 11
105 20 47 8 101 18 120 21 19 3 42 8 50 10 8 2 33 7 55 10 41 5 51 7 140 24
28 6 66 12 85 15 19 3 85 15 145 26 156 28 151 27 250 45 85 14 124 21 170 30
286 52 548 226 709 470 29 44 75 125 101 180 72 150 183 380 270 560 120 248
212 439 275 570 32 66 94 194 138 285 191 394 238 493 299 620 36 74 95 196
131 270 298 616 335 703 458 1065 116 341 207 716 249 1025 3 25 8 54 9 65 2
11 7 54 11 95 4 41 9 86 11 100 23 139 23 723 -1 895 -2 17 -6 55 -10 85 -12
108 -17 136 -31 215 -8 44 -17 96 -20 115 -10 62 -81 336 -114 437 -243 751
-711 1382 -1363 1836 -64 45 -133 91 -151 102 -107 63 -157 92 -206 118 -112
61 -165 87 -175 87 -5 0 -30 -39 -55 -88z"/>
</g>
</svg>
